{
  "accessors": [
    {
      "bufferView": 2,
      "componentType": 5126,
      "count": 6746,
      "max": [
        1.683629035949707,
        0.24893736839294434,
        4.435809135437012
      ],
      "min": [
        -1.683629035949707,
        -0.24893736839294434,
        -4.43569803237915
      ],
      "type": "VEC3"
    },
    {
      "bufferView": 2,
      "byteOffset": 80952,
      "componentType": 5126,
      "count": 6746,
      "max": [
        0.9999973177909851,
        0.9999973177909851,
        1.0
      ],
      "min": [
        -0.9999973177909851,
        -0.9999973177909851,
        -1.0
      ],
      "type": "VEC3"
    },
    {
      "bufferView": 3,
      "componentType": 5126,
      "count": 6746,
      "max": [
        1.0,
        1.0,
        0.999996542930603,
        1.0
      ],
      "min": [
        -1.0,
        -1.0,
        -0.9999971985816956,
        -1.0
      ],
      "type": "VEC4"
    },
    {
      "bufferView": 1,
      "componentType": 5126,
      "count": 6746,
      "max": [
        0.9990975260734558,
        0.9986518025398254
      ],
      "min": [
        0.0008005648851394653,
        0.0033829566091299057
      ],
      "type": "VEC2"
    },
    {
      "bufferView": 0,
      "componentType": 5125,
      "count": 26376,
      "type": "SCALAR"
    },
    {
      "bufferView": 2,
      "byteOffset": 161904,
      "componentType": 5126,
      "count": 3508,
      "max": [
        1.5395859479904175,
        0.027959110215306282,
        -0.10804324597120285
      ],
      "min": [
        -1.5395857095718384,
        -0.028276214376091957,
        -4.276159286499023
      ],
      "type": "VEC3"
    },
    {
      "bufferView": 2,
      "byteOffset": 204000,
      "componentType": 5126,
      "count": 3508,
      "max": [
        0.9063346982002258,
        1.0,
        0.8700583577156067
      ],
      "min": [
        -0.9063346982002258,
        -1.0,
        -0.8699401021003723
      ],
      "type": "VEC3"
    },
    {
      "bufferView": 1,
      "byteOffset": 53968,
      "componentType": 5126,
      "count": 3508,
      "max": [
        1.0,
        1.0
      ],
      "min": [
        -1.0563492480741843e-07,
        0.5
      ],
      "type": "VEC2"
    },
    {
      "bufferView": 0,
      "byteOffset": 105504,
      "componentType": 5125,
      "count": 15336,
      "type": "SCALAR"
    },
    {
      "bufferView": 2,
      "byteOffset": 246096,
      "componentType": 5126,
      "count": 912,
      "max": [
        1.5187404155731201,
        0.015363517217338085,
        -0.11502030491828918
      ],
      "min": [
        -1.5187404155731201,
        -0.01536540500819683,
        -4.249851226806641
      ],
      "type": "VEC3"
    },
    {
      "bufferView": 2,
      "byteOffset": 257040,
      "componentType": 5126,
      "count": 912,
      "max": [
        0.9943350553512573,
        0.16170017421245575,
        0.9937945008277893
      ],
      "min": [
        -0.9943347573280334,
        -0.16170918941497803,
        -0.9868469834327698
      ],
      "type": "VEC3"
    },
    {
      "bufferView": 1,
      "byteOffset": 82032,
      "componentType": 5126,
      "count": 912,
      "max": [
        0.4998789429664612,
        0.053218577057123184
      ],
      "min": [
        0.45948952436447144,
        0.012746065855026245
      ],
      "type": "VEC2"
    },
    {
      "bufferView": 0,
      "byteOffset": 166848,
      "componentType": 5125,
      "count": 2280,
      "type": "SCALAR"
    }
  ],
  "asset": {
    "extras": {
      "author": "Ya (https://sketchfab.com/Yarik16)",
      "license": "SKETCHFAB Standard (https://sketchfab.com/licenses)",
      "source": "https://sketchfab.com/3d-models/wilson-blade-team-tennis-racket-c9db9da0832341cf843b3b5abe615c38",
      "title": "Wilson Blade Team Tennis Racket"
    },
    "generator": "Sketchfab-15.65.0",
    "version": "2.0"
  },
  "bufferViews": [
    {
      "buffer": 0,
      "byteLength": 175968,
      "name": "floatBufferViews",
      "target": 34963
    },
    {
      "buffer": 0,
      "byteLength": 89328,
      "byteOffset": 175968,
      "byteStride": 8,
      "name": "floatBufferViews",
      "target": 34962
    },
    {
      "buffer": 0,
      "byteLength": 267984,
      "byteOffset": 265296,
      "byteStride": 12,
      "name": "floatBufferViews",
      "target": 34962
    },
    {
      "buffer": 0,
      "byteLength": 107936,
      "byteOffset": 533280,
      "byteStride": 16,
      "name": "floatBufferViews",
      "target": 34962
    }
  ],
  "buffers": [
    {
      "byteLength": 641216,
      "uri": "scene.bin"
    }
  ],
  "images": [
    {
      "uri": "textures/tennis_racquet_baseColor.png"
    },
    {
      "uri": "textures/tennis_racquet_metallicRoughness.png"
    },
    {
      "uri": "textures/tennis_racquet_normal.png"
    }
  ],
  "materials": [
    {
      "doubleSided": true,
      "name": "tennis_racquet",
      "normalTexture": {
        "index": 2
      },
      "pbrMetallicRoughness": {
        "baseColorTexture": {
          "index": 0
        },
        "metallicFactor": 0.0,
        "metallicRoughnessTexture": {
          "index": 1
        }
      }
    },
    {
      "doubleSided": true,
      "name": "strings",
      "pbrMetallicRoughness": {
        "baseColorFactor": [
          0.638272,
          0.638272,
          0.638272,
          1.0
        ],
        "metallicFactor": 0.0,
        "roughnessFactor": 0.1875
      }
    },
    {
      "doubleSided": true,
      "name": "dark",
      "pbrMetallicRoughness": {
        "baseColorFactor": [
          0.0,
          0.0,
          0.0,
          1.0
        ],
        "metallicFactor": 0.0
      }
    }
  ],
  "meshes": [
    {
      "name": "Object_0",
      "primitives": [
        {
          "attributes": {
            "NORMAL": 1,
            "POSITION": 0,
            "TANGENT": 2,
            "TEXCOORD_0": 3
          },
          "indices": 4,
          "material": 0,
          "mode": 4
        }
      ]
    },
    {
      "name": "Object_1",
      "primitives": [
        {
          "attributes": {
            "NORMAL": 6,
            "POSITION": 5,
            "TEXCOORD_0": 7
          },
          "indices": 8,
          "material": 1,
          "mode": 4
        }
      ]
    },
    {
      "name": "Object_2",
      "primitives": [
        {
          "attributes": {
            "NORMAL": 10,
            "POSITION": 9,
            "TEXCOORD_0": 11
          },
          "indices": 12,
          "material": 2,
          "mode": 4
        }
      ]
    }
  ],
  "nodes": [
    {
      "children": [
        1
      ],
      "matrix": [
        1.0,
        0.0,
        0.0,
        0.0,
        0.0,
        2.220446049250313e-16,
        -1.0,
        0.0,
        0.0,
        1.0,
        2.220446049250313e-16,
        0.0,
        0.0,
        0.0,
        0.0,
        1.0
      ],
      "name": "Sketchfab_model"
    },
    {
      "children": [
        2
      ],
      "name": "root"
    },
    {
      "children": [
        3
      ],
      "matrix": [
        1.0,
        0.0,
        0.0,
        0.0,
        0.0,
        2.220446049250313e-16,
        1.0,
        0.0,
        0.0,
        -1.0,
        2.220446049250313e-16,
        0.0,
        0.0,
        0.0,
        0.0,
        1.0
      ],
      "name": "GLTF_SceneRootNode"
    },
    {
      "children": [
        4,
        5,
        6
      ],
      "name": "tennis racquet_0"
    },
    {
      "mesh": 0,
      "name": "Object_4"
    },
    {
      "mesh": 1,
      "name": "Object_5"
    },
    {
      "mesh": 2,
      "name": "Object_6"
    }
  ],
  "samplers": [
    {
      "magFilter": 9729,
      "minFilter": 9987,
      "wrapS": 10497,
      "wrapT": 10497
    }
  ],
  "scene": 0,
  "scenes": [
    {
      "name": "Sketchfab_Scene",
      "nodes": [
        0
      ]
    }
  ],
  "textures": [
    {
      "sampler": 0,
      "source": 0
    },
    {
      "sampler": 0,
      "source": 1
    },
    {
      "sampler": 0,
      "source": 2
    }
  ]
}
