{
	"asset":{
		"generator":"Khronos glTF Blender I/O v4.2.70",
		"version":"2.0"
	},
	"scene":0,
	"scenes":[
		{
			"name":"Scene",
			"nodes":[
				14
			]
		}
	],
	"nodes":[
		{
			"mesh":0,
			"name":"Object_72"
		},
		{
			"mesh":1,
			"name":"Object_73"
		},
		{
			"mesh":2,
			"name":"Object_74"
		},
		{
			"mesh":3,
			"name":"Object_75"
		},
		{
			"mesh":4,
			"name":"Object_76"
		},
		{
			"mesh":5,
			"name":"Object_77"
		},
		{
			"mesh":6,
			"name":"Object_78"
		},
		{
			"mesh":7,
			"name":"Object_79"
		},
		{
			"mesh":8,
			"name":"Object_80"
		},
		{
			"mesh":9,
			"name":"Object_81"
		},
		{
			"mesh":10,
			"name":"Object_82"
		},
		{
			"children":[
				0,
				1,
				2,
				3,
				4,
				5,
				6,
				7,
				8,
				9,
				10
			],
			"name":"terrain de padel.008_13",
			"rotation":[
				0,
				-1,
				0,
				1.6292068494294654e-07
			],
			"scale":[
				10,
				3.811751127243042,
				4.863306045532227
			]
		},
		{
			"children":[
				11
			],
			"name":"GLTF_SceneRootNode",
			"rotation":[
				0.70710688829422,
				0,
				0,
				0.7071066498756409
			]
		},
		{
			"children":[
				12
			],
			"name":"root"
		},
		{
			"children":[
				13
			],
			"name":"Sketchfab_model",
			"rotation":[
				-0.70710688829422,
				0,
				0,
				0.7071066498756409
			]
		}
	],
	"materials":[
		{
			"doubleSided":true,
			"name":"Material.003",
			"pbrMetallicRoughness":{
				"baseColorTexture":{
					"index":0
				},
				"metallicFactor":0,
				"roughnessFactor":0.5
			}
		},
		{
			"doubleSided":true,
			"name":"Matriau.001",
			"pbrMetallicRoughness":{
				"baseColorFactor":[
					0.800000011920929,
					0.800000011920929,
					0.800000011920929,
					1
				],
				"metallicFactor":0,
				"roughnessFactor":0.5
			}
		},
		{
			"doubleSided":true,
			"name":"cloture_fer.002",
			"pbrMetallicRoughness":{
				"baseColorFactor":[
					0,
					0,
					0,
					1
				],
				"metallicFactor":0.6409090161323547,
				"roughnessFactor":0.6363639831542969
			}
		},
		{
			"alphaMode":"BLEND",
			"doubleSided":true,
			"name":"vitre.002",
			"pbrMetallicRoughness":{
				"baseColorFactor":[
					0.4690589904785156,
					0.6598489880561829,
					0.800000011920929,
					0.41818198561668396
				],
				"metallicFactor":0,
				"roughnessFactor":0.5
			}
		},
		{
			"doubleSided":true,
			"name":"lampe.002",
			"pbrMetallicRoughness":{
				"baseColorFactor":[
					0.06841660290956497,
					0.06841660290956497,
					0.06841660290956497,
					1
				],
				"metallicFactor":0.4681819975376129,
				"roughnessFactor":0.37727299332618713
			}
		},
		{
			"doubleSided":true,
			"name":"intrieur_lampe.002",
			"pbrMetallicRoughness":{
				"baseColorFactor":[
					0.06703150272369385,
					0.12403900176286697,
					0.05982949957251549,
					1
				],
				"metallicFactor":0.42272698879241943,
				"roughnessFactor":0
			}
		},
		{
			"doubleSided":true,
			"name":"Material.001",
			"pbrMetallicRoughness":{
				"baseColorFactor":[
					0.800000011920929,
					0.800000011920929,
					0.800000011920929,
					1
				],
				"metallicFactor":0,
				"roughnessFactor":0.24090899527072906
			}
		},
		{
			"doubleSided":true,
			"name":"filet.002",
			"pbrMetallicRoughness":{
				"baseColorFactor":[
					0,
					0,
					0,
					1
				],
				"metallicFactor":0,
				"roughnessFactor":0.9227269887924194
			}
		}
	],
	"meshes":[
		{
			"name":"Object_55.001",
			"primitives":[
				{
					"attributes":{
						"POSITION":0,
						"NORMAL":1,
						"TEXCOORD_0":2
					},
					"indices":3,
					"material":0
				}
			]
		},
		{
			"name":"Object_56.001",
			"primitives":[
				{
					"attributes":{
						"POSITION":4,
						"NORMAL":5,
						"TEXCOORD_0":6
					},
					"indices":7,
					"material":1
				}
			]
		},
		{
			"name":"Object_57.001",
			"primitives":[
				{
					"attributes":{
						"POSITION":8,
						"NORMAL":9,
						"TEXCOORD_0":10
					},
					"indices":11,
					"material":2
				}
			]
		},
		{
			"name":"Object_58.001",
			"primitives":[
				{
					"attributes":{
						"POSITION":12,
						"NORMAL":13,
						"TEXCOORD_0":14
					},
					"indices":15,
					"material":2
				}
			]
		},
		{
			"name":"Object_59.001",
			"primitives":[
				{
					"attributes":{
						"POSITION":16,
						"NORMAL":17,
						"TEXCOORD_0":18
					},
					"indices":19,
					"material":2
				}
			]
		},
		{
			"name":"Object_60.001",
			"primitives":[
				{
					"attributes":{
						"POSITION":20,
						"NORMAL":21,
						"TEXCOORD_0":22
					},
					"indices":23,
					"material":2
				}
			]
		},
		{
			"name":"Object_61.001",
			"primitives":[
				{
					"attributes":{
						"POSITION":24,
						"NORMAL":25,
						"TEXCOORD_0":26
					},
					"indices":27,
					"material":3
				}
			]
		},
		{
			"name":"Object_62.001",
			"primitives":[
				{
					"attributes":{
						"POSITION":28,
						"NORMAL":29,
						"TEXCOORD_0":30
					},
					"indices":31,
					"material":4
				}
			]
		},
		{
			"name":"Object_63.001",
			"primitives":[
				{
					"attributes":{
						"POSITION":32,
						"NORMAL":33,
						"TEXCOORD_0":34
					},
					"indices":35,
					"material":5
				}
			]
		},
		{
			"name":"Object_64.001",
			"primitives":[
				{
					"attributes":{
						"POSITION":36,
						"NORMAL":37,
						"TEXCOORD_0":38
					},
					"indices":39,
					"material":6
				}
			]
		},
		{
			"name":"Object_65.001",
			"primitives":[
				{
					"attributes":{
						"POSITION":40,
						"NORMAL":41,
						"TEXCOORD_0":42
					},
					"indices":43,
					"material":7
				}
			]
		}
	],
	"textures":[
		{
			"sampler":0,
			"source":0
		}
	],
	"images":[
		{
			"mimeType":"image/png",
			"name":"sol_padel.001_baseColor",
			"uri":"sol_padel_001_baseColor.png"
		}
	],
	"accessors":[
		{
			"bufferView":0,
			"componentType":5126,
			"count":72,
			"max":[
				0.9899922013282776,
				0.027237538248300552,
				0.9829673767089844
			],
			"min":[
				-0.9899922013282776,
				0.027237538248300552,
				-0.9829673767089844
			],
			"type":"VEC3"
		},
		{
			"bufferView":1,
			"componentType":5126,
			"count":72,
			"type":"VEC3"
		},
		{
			"bufferView":2,
			"componentType":5126,
			"count":72,
			"type":"VEC2"
		},
		{
			"bufferView":3,
			"componentType":5123,
			"count":144,
			"type":"SCALAR"
		},
		{
			"bufferView":4,
			"componentType":5126,
			"count":39,
			"max":[
				0.7453075051307678,
				0.027237538248300552,
				0.9829673767089844
			],
			"min":[
				-0.7452923655509949,
				0.027237538248300552,
				-0.9829673767089844
			],
			"type":"VEC3"
		},
		{
			"bufferView":5,
			"componentType":5126,
			"count":39,
			"type":"VEC3"
		},
		{
			"bufferView":6,
			"componentType":5126,
			"count":39,
			"type":"VEC2"
		},
		{
			"bufferView":7,
			"componentType":5123,
			"count":72,
			"type":"SCALAR"
		},
		{
			"bufferView":8,
			"componentType":5126,
			"count":72636,
			"max":[
				0.7964126467704773,
				0.8486184477806091,
				0.9924336671829224
			],
			"min":[
				-0.7964126467704773,
				0.0230846144258976,
				-0.9924336671829224
			],
			"type":"VEC3"
		},
		{
			"bufferView":9,
			"componentType":5126,
			"count":72636,
			"type":"VEC3"
		},
		{
			"bufferView":10,
			"componentType":5126,
			"count":72636,
			"type":"VEC2"
		},
		{
			"bufferView":11,
			"componentType":5125,
			"count":107916,
			"type":"SCALAR"
		},
		{
			"bufferView":12,
			"componentType":5126,
			"count":70576,
			"max":[
				1,
				1.6701757907867432,
				1.000152349472046
			],
			"min":[
				-1,
				0.01992369256913662,
				-1.000152349472046
			],
			"type":"VEC3"
		},
		{
			"bufferView":13,
			"componentType":5126,
			"count":70576,
			"type":"VEC3"
		},
		{
			"bufferView":14,
			"componentType":5126,
			"count":70576,
			"type":"VEC2"
		},
		{
			"bufferView":15,
			"componentType":5125,
			"count":113019,
			"type":"SCALAR"
		},
		{
			"bufferView":16,
			"componentType":5126,
			"count":79683,
			"max":[
				0.9959460496902466,
				1.0929750204086304,
				0.9924336671829224
			],
			"min":[
				-0.9959460496902466,
				0.5875333547592163,
				-0.9927629828453064
			],
			"type":"VEC3"
		},
		{
			"bufferView":17,
			"componentType":5126,
			"count":79683,
			"type":"VEC3"
		},
		{
			"bufferView":18,
			"componentType":5126,
			"count":79683,
			"type":"VEC2"
		},
		{
			"bufferView":19,
			"componentType":5125,
			"count":107664,
			"type":"SCALAR"
		},
		{
			"bufferView":20,
			"componentType":5126,
			"count":58684,
			"max":[
				0.9959460496902466,
				1.0929750204086304,
				0.9927629828453064
			],
			"min":[
				-0.9959460496902466,
				0.03346876800060272,
				-0.9924814105033875
			],
			"type":"VEC3"
		},
		{
			"bufferView":21,
			"componentType":5126,
			"count":58684,
			"type":"VEC3"
		},
		{
			"bufferView":22,
			"componentType":5126,
			"count":58684,
			"type":"VEC2"
		},
		{
			"bufferView":23,
			"componentType":5123,
			"count":75369,
			"type":"SCALAR"
		},
		{
			"bufferView":24,
			"componentType":5126,
			"count":90,
			"max":[
				0.9949960708618164,
				0.8486253023147583,
				0.9914836883544922
			],
			"min":[
				-0.9949960708618164,
				0.033710695803165436,
				-0.9914836883544922
			],
			"type":"VEC3"
		},
		{
			"bufferView":25,
			"componentType":5126,
			"count":90,
			"type":"VEC3"
		},
		{
			"bufferView":26,
			"componentType":5126,
			"count":90,
			"type":"VEC2"
		},
		{
			"bufferView":27,
			"componentType":5123,
			"count":156,
			"type":"SCALAR"
		},
		{
			"bufferView":28,
			"componentType":5126,
			"count":440,
			"max":[
				0.6407809853553772,
				1.688448190689087,
				1.0281071662902832
			],
			"min":[
				-0.6407809853553772,
				1.5999717712402344,
				-1.0281071662902832
			],
			"type":"VEC3"
		},
		{
			"bufferView":29,
			"componentType":5126,
			"count":440,
			"type":"VEC3"
		},
		{
			"bufferView":30,
			"componentType":5126,
			"count":440,
			"type":"VEC2"
		},
		{
			"bufferView":31,
			"componentType":5123,
			"count":624,
			"type":"SCALAR"
		},
		{
			"bufferView":32,
			"componentType":5126,
			"count":160,
			"max":[
				0.6385135650634766,
				1.679119348526001,
				1.016875147819519
			],
			"min":[
				-0.6385135650634766,
				1.603968858718872,
				-1.016875147819519
			],
			"type":"VEC3"
		},
		{
			"bufferView":33,
			"componentType":5126,
			"count":160,
			"type":"VEC3"
		},
		{
			"bufferView":34,
			"componentType":5126,
			"count":160,
			"type":"VEC2"
		},
		{
			"bufferView":35,
			"componentType":5123,
			"count":240,
			"type":"SCALAR"
		},
		{
			"bufferView":36,
			"componentType":5126,
			"count":12,
			"max":[
				0.0005151868099346757,
				0.25201812386512756,
				0.9729801416397095
			],
			"min":[
				-0.0004794458218384534,
				0.22206532955169678,
				-0.9729801416397095
			],
			"type":"VEC3"
		},
		{
			"bufferView":37,
			"componentType":5126,
			"count":12,
			"type":"VEC3"
		},
		{
			"bufferView":38,
			"componentType":5126,
			"count":12,
			"type":"VEC2"
		},
		{
			"bufferView":39,
			"componentType":5123,
			"count":18,
			"type":"SCALAR"
		},
		{
			"bufferView":40,
			"componentType":5126,
			"count":21572,
			"max":[
				0.00034999940544366837,
				0.22206532955169678,
				0.9729801416397095
			],
			"min":[
				-0.00034999940544366837,
				0.027237538248300552,
				-0.9729801416397095
			],
			"type":"VEC3"
		},
		{
			"bufferView":41,
			"componentType":5126,
			"count":21572,
			"type":"VEC3"
		},
		{
			"bufferView":42,
			"componentType":5126,
			"count":21572,
			"type":"VEC2"
		},
		{
			"bufferView":43,
			"componentType":5123,
			"count":32544,
			"type":"SCALAR"
		}
	],
	"bufferViews":[
		{
			"buffer":0,
			"byteLength":864,
			"byteOffset":0,
			"target":34962
		},
		{
			"buffer":0,
			"byteLength":864,
			"byteOffset":864,
			"target":34962
		},
		{
			"buffer":0,
			"byteLength":576,
			"byteOffset":1728,
			"target":34962
		},
		{
			"buffer":0,
			"byteLength":288,
			"byteOffset":2304,
			"target":34963
		},
		{
			"buffer":0,
			"byteLength":468,
			"byteOffset":2592,
			"target":34962
		},
		{
			"buffer":0,
			"byteLength":468,
			"byteOffset":3060,
			"target":34962
		},
		{
			"buffer":0,
			"byteLength":312,
			"byteOffset":3528,
			"target":34962
		},
		{
			"buffer":0,
			"byteLength":144,
			"byteOffset":3840,
			"target":34963
		},
		{
			"buffer":0,
			"byteLength":871632,
			"byteOffset":3984,
			"target":34962
		},
		{
			"buffer":0,
			"byteLength":871632,
			"byteOffset":875616,
			"target":34962
		},
		{
			"buffer":0,
			"byteLength":581088,
			"byteOffset":1747248,
			"target":34962
		},
		{
			"buffer":0,
			"byteLength":431664,
			"byteOffset":2328336,
			"target":34963
		},
		{
			"buffer":0,
			"byteLength":846912,
			"byteOffset":2760000,
			"target":34962
		},
		{
			"buffer":0,
			"byteLength":846912,
			"byteOffset":3606912,
			"target":34962
		},
		{
			"buffer":0,
			"byteLength":564608,
			"byteOffset":4453824,
			"target":34962
		},
		{
			"buffer":0,
			"byteLength":452076,
			"byteOffset":5018432,
			"target":34963
		},
		{
			"buffer":0,
			"byteLength":956196,
			"byteOffset":5470508,
			"target":34962
		},
		{
			"buffer":0,
			"byteLength":956196,
			"byteOffset":6426704,
			"target":34962
		},
		{
			"buffer":0,
			"byteLength":637464,
			"byteOffset":7382900,
			"target":34962
		},
		{
			"buffer":0,
			"byteLength":430656,
			"byteOffset":8020364,
			"target":34963
		},
		{
			"buffer":0,
			"byteLength":704208,
			"byteOffset":8451020,
			"target":34962
		},
		{
			"buffer":0,
			"byteLength":704208,
			"byteOffset":9155228,
			"target":34962
		},
		{
			"buffer":0,
			"byteLength":469472,
			"byteOffset":9859436,
			"target":34962
		},
		{
			"buffer":0,
			"byteLength":150738,
			"byteOffset":10328908,
			"target":34963
		},
		{
			"buffer":0,
			"byteLength":1080,
			"byteOffset":10479648,
			"target":34962
		},
		{
			"buffer":0,
			"byteLength":1080,
			"byteOffset":10480728,
			"target":34962
		},
		{
			"buffer":0,
			"byteLength":720,
			"byteOffset":10481808,
			"target":34962
		},
		{
			"buffer":0,
			"byteLength":312,
			"byteOffset":10482528,
			"target":34963
		},
		{
			"buffer":0,
			"byteLength":5280,
			"byteOffset":10482840,
			"target":34962
		},
		{
			"buffer":0,
			"byteLength":5280,
			"byteOffset":10488120,
			"target":34962
		},
		{
			"buffer":0,
			"byteLength":3520,
			"byteOffset":10493400,
			"target":34962
		},
		{
			"buffer":0,
			"byteLength":1248,
			"byteOffset":10496920,
			"target":34963
		},
		{
			"buffer":0,
			"byteLength":1920,
			"byteOffset":10498168,
			"target":34962
		},
		{
			"buffer":0,
			"byteLength":1920,
			"byteOffset":10500088,
			"target":34962
		},
		{
			"buffer":0,
			"byteLength":1280,
			"byteOffset":10502008,
			"target":34962
		},
		{
			"buffer":0,
			"byteLength":480,
			"byteOffset":10503288,
			"target":34963
		},
		{
			"buffer":0,
			"byteLength":144,
			"byteOffset":10503768,
			"target":34962
		},
		{
			"buffer":0,
			"byteLength":144,
			"byteOffset":10503912,
			"target":34962
		},
		{
			"buffer":0,
			"byteLength":96,
			"byteOffset":10504056,
			"target":34962
		},
		{
			"buffer":0,
			"byteLength":36,
			"byteOffset":10504152,
			"target":34963
		},
		{
			"buffer":0,
			"byteLength":258864,
			"byteOffset":10504188,
			"target":34962
		},
		{
			"buffer":0,
			"byteLength":258864,
			"byteOffset":10763052,
			"target":34962
		},
		{
			"buffer":0,
			"byteLength":172576,
			"byteOffset":11021916,
			"target":34962
		},
		{
			"buffer":0,
			"byteLength":65088,
			"byteOffset":11194492,
			"target":34963
		}
	],
	"samplers":[
		{
			"magFilter":9729,
			"minFilter":9987
		}
	],
	"buffers":[
		{
			"byteLength":11259580,
			"uri":"scene.bin"
		}
	]
}
