{
	"asset":{
		"generator":"Khronos glTF Blender I/O v4.2.70",
		"version":"2.0"
	},
	"scene":0,
	"scenes":[
		{
			"name":"Scene",
			"nodes":[
				4
			]
		}
	],
	"nodes":[
		{
			"mesh":0,
			"name":"model_tex_u1_v1_0.009"
		},
		{
			"children":[
				0
			],
			"name":"model"
		},
		{
			"children":[
				1
			],
			"name":"RootNode"
		},
		{
			"children":[
				2
			],
			"name":"model.fbx",
			"rotation":[
				1,
				0,
				0,
				0
			]
		},
		{
			"children":[
				3
			],
			"name":"Sketchfab_model",
			"rotation":[
				-0.7070723176002502,
				0.07773460447788239,
				0.03329939767718315,
				0.7020664215087891
			]
		}
	],
	"meshes":[
		{
			"name":"model_tex_u1_v1_0.009",
			"primitives":[
				{
					"attributes":{
						"POSITION":0,
						"NORMAL":1,
						"TEXCOORD_0":2,
						"TEXCOORD_1":3
					},
					"indices":4
				}
			]
		}
	],
	"accessors":[
		{
			"bufferView":0,
			"componentType":5126,
			"count":628895,
			"max":[
				0.04533886909484863,
				0.13481807708740234,
				0.2903974950313568
			],
			"min":[
				-0.036509037017822266,
				-0.12548303604125977,
				-0.16240812838077545
			],
			"type":"VEC3"
		},
		{
			"bufferView":1,
			"componentType":5126,
			"count":628895,
			"type":"VEC3"
		},
		{
			"bufferView":2,
			"componentType":5126,
			"count":628895,
			"type":"VEC2"
		},
		{
			"bufferView":3,
			"componentType":5126,
			"count":628895,
			"type":"VEC2"
		},
		{
			"bufferView":4,
			"componentType":5125,
			"count":2817510,
			"type":"SCALAR"
		}
	],
	"bufferViews":[
		{
			"buffer":0,
			"byteLength":7546740,
			"byteOffset":0,
			"target":34962
		},
		{
			"buffer":0,
			"byteLength":7546740,
			"byteOffset":7546740,
			"target":34962
		},
		{
			"buffer":0,
			"byteLength":5031160,
			"byteOffset":15093480,
			"target":34962
		},
		{
			"buffer":0,
			"byteLength":5031160,
			"byteOffset":20124640,
			"target":34962
		},
		{
			"buffer":0,
			"byteLength":11270040,
			"byteOffset":25155800,
			"target":34963
		}
	],
	"buffers":[
		{
			"byteLength":36425840,
			"uri":"scene.bin"
		}
	]
}
